<?xml version="1.0" encoding="utf-8"?>
<!-- Generator: Adobe Illustrator 16.0.0, SVG Export Plug-In . SVG Version: 6.00 Build 0)  -->
<!DOCTYPE svg PUBLIC "-//W3C//DTD SVG 1.1//EN" "http://www.w3.org/Graphics/SVG/1.1/DTD/svg11.dtd">
<svg version="1.1" id="Capa_1" xmlns="http://www.w3.org/2000/svg" xmlns:xlink="http://www.w3.org/1999/xlink" x="0px" y="0px"
	 width="32px" height="32px" viewBox="0 0 32 32" enable-background="new 0 0 32 32" xml:space="preserve">
<rect fill="#E77D10" width="32" height="32"/>
<rect fill="#E77D10" width="32" height="32"/>
<g>
	<path fill="#CE6910" d="M32,17.6V32H11.46l-7.52-7.79l-0.03-0.03l-2.2-2.35c-0.02-0.03-0.03-0.061-0.05-0.09
		c-0.05-0.11-0.1-0.23-0.15-0.36c-0.19-0.479-0.34-1.03-0.43-1.64c-0.02-0.12-0.04-0.25-0.05-0.38c-0.04-0.37-0.06-0.761-0.06-1.17
		c0-6.771,7.95-6.46,7.95-6.46s0.03-0.22,0.14-0.59c0.01-0.05,0.03-0.11,0.05-0.16c0.05-0.15,0.1-0.31,0.17-0.49
		c0.04-0.1,0.08-0.21,0.13-0.32C9.54,9.88,9.7,9.56,9.9,9.23c0.05-0.09,0.11-0.19,0.18-0.28c0.19-0.29,0.42-0.58,0.67-0.86
		c0.09-0.1,0.18-0.19,0.27-0.29c0.09-0.09,0.19-0.3,0.29-0.39C11.42,7.31,11.54,7,11.66,7H22.2L32,17.6z"/>
	<path fill="#FFFFFF" d="M0.969,18.188c0-6.768,7.947-6.457,7.947-6.457s0.932-6.146,8.132-6.146c7.947,0,8.194,9.002,8.194,9.002
		S30.8,14.71,30.8,19.584c0,1.49,0.031,5.618-5.867,5.618H8.356C5.066,25.202,0.969,24.022,0.969,18.188z M16.242,18.369
		c-0.888,0-1.61-0.723-1.61-1.609c0-0.889,0.722-1.61,1.61-1.61c0.713,0,1.32,0.468,1.529,1.113h1.286
		c-0.234-1.342-1.409-2.364-2.815-2.364c-1.578,0-2.862,1.283-2.862,2.861c0,1.577,1.284,2.859,2.862,2.859
		c1.34,0,2.47-0.929,2.775-2.176h-1.319C17.441,17.989,16.885,18.369,16.242,18.369z M16.242,21.474
		c-2.601,0-4.715-2.115-4.715-4.714c0-2.601,2.114-4.715,4.715-4.715c2.431,0,4.438,1.85,4.687,4.218h1.256
		c-0.252-3.058-2.822-5.469-5.942-5.469c-3.29,0-5.966,2.677-5.966,5.966c0,3.288,2.676,5.965,5.966,5.965
		c3.058,0,5.586-2.313,5.925-5.281h-1.262C20.574,19.72,18.608,21.474,16.242,21.474z"/>
</g>
</svg>
